User Type,Username,Date,Text
,SJonam,2012-09-15T10:47Z,"Media Info - 
General
Complete name                    : Jeena Hai To Thok Daal (2012) HDScam  Rip-Team Ictv.AVI
Format                           : AVI
Format/Info                      : Audio Video Interleave
File size                        : 509 MiB
Duration                         : 1h 56mn
Overall bit rate                 : 613 Kbps

Video
ID                               : 0
Format                           : MPEG-4 Visual
Format profile                   : Simple@L3
Format settings, BVOP            : No
Format settings, QPel            : No
Format settings, GMC             : No warppoints
Format settings, Matrix          : Default (H.263)
Codec ID                         : XVID
Codec ID/Hint                    : XviD
Duration                         : 1h 56mn
Bit rate                         : 559 Kbps
Width                            : 480 pixels
Height                           : 240 pixels
Display aspect ratio             : 2.000
Frame rate                       : 25.000 fps
Color space                      : YUV
Chroma subsampling               : 4:2:0
Bit depth                        : 8 bits
Scan type                        : Progressive
Compression mode                 : Lossy
Bits/(Pixel*Frame)               : 0.194
Stream size                      : 464 MiB (91%)
Writing library                  : ZJMedia MPEG Encoder

Audio
ID                               : 1
Format                           : MPEG Audio
Codec ID                         : 55
Codec ID/Hint                    : MP3
Duration                         : 1h 56mn
Bit rate                         : 64.0 Kbps
Channel(s)                       : 2 channels
Sampling rate                    : 44.1 KHz
Compression mode                 : Lossy
Stream size                      : 53.1 MiB (10%)
Alignment                        : Aligned on interleaves
Interleave, duration             : 1023 ms (25.57 video frames)"
